# AST/ASF file generated using VICON BodyLanguage
# -----------------------------------------------
:version 1.10
:name VICON
:units
  mass 1.0
  length 0.45
  angle deg
:documentation
   .ast/.asf automatically generated from VICON data using
   VICON BodyBuilder and BodyLanguage model FoxedUp or BRILLIANT.MOD
:root
   order TX TY TZ RX RY RZ
   axis XYZ
   position 0 0 0  
   orientation 0 0 0 
:bonedata
  begin
     id 1 
     name lhipjoint
     direction 0.603808 -0.713975 0.35448 
     length 2.2025 
     axis 0 0 0  XYZ
  end
  begin
     id 2 
     name lfemur
     direction 0.34202 -0.939693 0  
     length 6.55877  
     axis 0 0 20  XYZ
    dof rx ry rz
    limits (-160.0 20.0)
           (-70.0 70.0)
           (-60.0 70.0)
  end
  begin
     id 3 
     name ltibia
     direction 0.34202 -0.939693 0   
     length 6.80302   
     axis 0 0 20   XYZ
    dof rx
    limits (-10.0 170.0)
  end
  begin
     id 4 
     name lfoot
     direction 0.091848 -0.25235 0.963267   
     length 2.03446   
     axis -90 7.62852e-016 20   XYZ
    dof rx rz
    limits (-45.0 90.0)
           (-70.0 20.0)
  end
  begin
     id 5 
     name ltoes
     direction 1.53608e-011 -4.21925e-011 1   
     length 1.02033   
     axis -90 7.62852e-016 20   XYZ
    dof rx
    limits (-90.0 20.0)
  end
  begin
     id 6 
     name rhipjoint
     direction -0.587285 -0.724947 0.359928   
     length 2.16916  
     axis 0 0 0  XYZ 
  end
  begin
     id 7 
     name rfemur
     direction -0.34202 -0.939693 0   
     length 6.43173   
     axis 0 0 -20   XYZ
    dof rx ry rz
    limits (-160.0 20.0)
           (-70.0 70.0)
           (-70.0 60.0)
  end
  begin
     id 8 
     name rtibia
     direction -0.34202 -0.939693 0   
     length 6.70662   
     axis 0 0 -20   XYZ
    dof rx
    limits (-10.0 170.0)
 end
 begin
     id 9 
     name rfoot
     direction -0.11854 -0.325686 0.938018   
     length 2.0773  
     axis -90 -7.62852e-016 -20   XYZ
    dof rx rz
    limits (-45.0 90.0)
           (-20.0 70.0)
  end
  begin
     id 10 
     name rtoes
     direction -1.53547e-011 -4.21838e-011 1   
     length 1.03267   
     axis -90 -7.62852e-016 -20   XYZ
    dof rx
    limits (-90.0 20.0)
  end
  begin
     id 11 
     name lowerback
     direction -0.0286554 0.999539 0.0100613   
     length 2.08751   
     axis 0 0 0   XYZ
    dof rx ry rz
    limits (-20.0 45.0)
           (-30.0 30.0)
           (-30.0 30.0)
  end
  begin
     id 12 
     name upperback
     direction 0.0227093 0.999705 -0.00860929   
     length 2.08517   
     axis 0 0 0   XYZ
    dof rx ry rz
    limits (-20.0 45.0)
           (-30.0 30.0)
           (-30.0 30.0)
  end
  begin
     id 13 
     name thorax
     direction 0.0351627 0.999285 -0.013892   
     length 2.08412   
     axis 0 0 0   XYZ
    dof rx ry rz
    limits (-20.0 45.0)
           (-30.0 30.0)
           (-30.0 30.0)
  end
  begin
     id 14 
     name lowerneck
     direction -0.0696283 0.997344 0.0213922   
     length 1.44164   
     axis 0 0 0   XYZ
    dof rx ry rz
    limits (-20.0 45.0)
           (-30.0 30.0)
           (-30.0 30.0)
  end
  begin
     id 15 
     name upperneck
     direction 0.0531 0.990412 -0.127531   
     length 1.45022   
     axis 0 0 0   XYZ
    dof rx ry rz
    limits (-20.0 45.0)
           (-30.0 30.0)
           (-30.0 30.0)
  end
  begin
     id 16
     name head
     direction 0.0188154 0.998548 -0.0504727  
     length 1.45845  
     axis 0 0 0   XYZ
    dof rx ry rz
    limits (-20.0 45.0)
           (-30.0 30.0)
           (-30.0 30.0)
  end
  begin
     id 17 
     name lclavicle
     direction 0.961559 0.260051 0.088188  
     length 2.86057  
     axis 0 0 0   XYZ
    dof ry rz
    limits (-20.0 10.0)
           (0.0 20.0)
  end
  begin
     id 18 
     name lhumerus
     direction 1 -4.48959e-011 2.88185e-027   
     length 4.36901   
     axis 180 -30 -90   XYZ
    dof rx ry rz
    limits (-60.0 90.0)
           (-90.0 90.0)
           (-90.0 90.0)
  end
  begin
     id 19
     name lradius
     direction 1 -4.48965e-011 -3.92618e-028   
     length 3.21737   
     axis 180 -30 -90   XYZ
    dof rx
    limits (-10.0 170.0)
  end
  begin
     id 20
     name lwrist
     direction 1 -4.49037e-011 2.57246e-027   
     length 1.60869   
     axis -1.61769e-015 90 90   XYZ
    dof ry
    limits (-180.0 0.0)
 end
  begin
     id 21 
     name lhand
     direction 1 -4.48807e-011 5.12958e-027   
     length 0.564313   
     axis -3.27988e-015 90 90   XYZ
    dof rx rz
    limits (-90.0 90.0)
           (-45.0 45.0)
  end
  begin
     id 22 
     name lfingers
     direction 1 -4.48879e-011 1.02687e-026   
     length 0.454963   
     axis -6.5598e-015 90 90   XYZ
    dof rx
    limits (0.0 90.0)
  end
  begin
     id 23
     name lthumb
     direction 0.707107 -6.3475e-011 0.707107   
     length 0.653239   
     axis -90 45 2.19363e-014   XYZ
    dof rx rz
    limits (-45.0 45.0)
           (-45.0 45.0)
  end
  begin
     id 24 
     name rclavicle
     direction -0.954677 0.253915 0.155304   
     length 3.11497  
     axis 0 0 0   XYZ 
    dof ry rz
    limits (-10.0 20.0)
           (-20.0 0.0)
  end
  begin
     id 25 
     name rhumerus
     direction -1 -4.48958e-011 -8.20169e-028  
     length 4.34118   
     axis 180 30 90   XYZ
    dof rx ry rz
    limits (-90.0 60.0)
           (-90.0 90.0)
           (-90.0 90.0)
  end
  begin
     id 26 
     name rradius
     direction -1 -4.48978e-011 1.5676e-027   
     length 3.09531   
     axis 180 30 90   XYZ
    dof rx
    limits (-10.0 170.0)
  end
  begin
     id 27 
     name rwrist
     direction -1 -4.49001e-011 2.57123e-027   
     length 1.54765   
     axis -1.61769e-015 -90 -90   XYZ
    dof ry
    limits (-180.0 0.0)
  end
  begin
     id 28
     name rhand
     direction -1 -4.48847e-011 5.13225e-027   
     length 0.597446   
     axis -3.27988e-015 -90 -90   XYZ
    dof rx rz
    limits (-90.0 90.0)
           (-45.0 45.0)
  end
  begin
     id 29
     name rfingers
     direction -1 -4.49094e-011 1.02974e-026   
     length 0.481677   
     axis -6.5598e-015 -90 -90   XYZ
    dof rx
    limits (0.0 90.0)
  end
  begin
     id 30
     name rthumb
     direction -0.707107 -6.34859e-011 0.707107   
     length 0.691594   
     axis -90 -45 -2.19363e-014   XYZ
    dof rx rz
    limits (-45.0 45.0)
           (-45.0 45.0)
  end
:hierarchy
  begin
    root lhipjoint rhipjoint lowerback
    lhipjoint lfemur
    lfemur ltibia
    ltibia lfoot
    lfoot ltoes
    rhipjoint rfemur
    rfemur rtibia
    rtibia rfoot
    rfoot rtoes
    lowerback upperback
    upperback thorax
    thorax lowerneck lclavicle rclavicle
    lowerneck upperneck
    upperneck head
    lclavicle lhumerus
    lhumerus lradius
    lradius lwrist
    lwrist lhand lthumb
    lhand lfingers
    rclavicle rhumerus
    rhumerus rradius
    rradius rwrist
    rwrist rhand rthumb
    rhand rfingers
  end

#!OML:ASF G:\acrobat\cartwheel_test 2\Patient 1\Session 1\acrobat.ASF
:FULLY-SPECIFIED
:DEGREES
116
root 7.65717 17.2923 -34.3583 -520.052 182.015 182.277
lowerback 13.0531 0.556623 -5.84027
upperback 6.14531 0.124918 3.06507
thorax -0.840591 -0.0914244 6.52152
lowerneck -10.6572 -4.08987 -4.09443
upperneck 25.2899 -4.06165 -3.02849
head 9.80164 -2.56809 -0.823408
rclavicle -6.36111e-015 1.90833e-014
rhumerus -28.6593 9.63076 -79.3775
rradius 48.4427
rwrist -16.7617
rhand -28.8857 31.3857
rfingers 7.12502
rthumb -2.24136 1.41769
lclavicle -6.36111e-015 1.90833e-014
lhumerus -23.1099 -12.4135 77.1481
lradius 42.8878
lwrist 38.8287
lhand -18.6635 46.1227
lfingers 7.12502
lthumb 7.62997 -644.035
rfemur -26.8887 2.11377 17.5474
rtibia 40.2137
rfoot -176.644 185.442
rtoes -38.977
lfemur -29.5714 6.01864 -23.5304
ltibia 52.7225
lfoot 361.656 -7.01371
ltoes -32.1539
117
root 7.59963 17.3202 -34.5332 -521.249 182.006 182.514
lowerback 11.5725 0.621 -5.863
upperback 5.63698 0.270452 2.64517
thorax -0.601496 -0.00642049 6.05648
lowerneck -9.29052 -4.46854 -1.77668
upperneck 23.7306 -4.67532 -4.99559
head 8.86481 -2.83057 -1.86869
rclavicle 1.55052e-014 5.56597e-015
rhumerus -29.7162 7.02613 -77.95
rradius 46.2514
rwrist -15.7362
rhand -29.5227 31.583
rfingers 7.12502
rthumb -2.85655 1.62236
lclavicle 1.55052e-014 5.56597e-015
lhumerus -25.3733 -11.1528 75.3929
lradius 41.9333
lwrist 37.8086
lhand -18.8387 45.5116
lfingers 7.12502
lthumb 7.46082 -644.64
rfemur -22.2706 2.64402 17.1776
rtibia 39.0111
rfoot -175.416 184.009
rtoes -34.8153
lfemur -24.6263 5.43502 -24.074
ltibia 47.9656
lfoot 364.597 -8.38418
ltoes -33.1343
118
root 7.55275 17.3284 -34.6939 -521.304 182.09 182.398
lowerback 9.30066 0.602146 -5.50444
upperback 4.48303 0.377776 2.28213
thorax -0.588999 0.0891614 5.44652
lowerneck -7.78452 -4.74503 -0.239331
upperneck 22.8241 -5.11666 -6.26116
head 8.17331 -3.01531 -2.50999
rclavicle 2.38542e-015 2.8625e-014
rhumerus -31.4043 4.90122 -76.4175
rradius 44.2167
rwrist -14.3869
rhand -29.7848 31.5626
rfingers 7.12502
rthumb -3.10963 1.60556
lclavicle 2.38542e-015 2.8625e-014
lhumerus -27.9583 -9.62019 73.2556
lradius 39.9658
lwrist 35.4595
lhand -18.0996 44.6113
lfingers 7.12502
lthumb 8.17424 -645.567
rfemur -18.3805 3.64488 17.2413
rtibia 35.9351
rfoot -174.333 179.146
rtoes -28.5323
lfemur -21.0705 4.8354 -24.4909
ltibia 43.4644
lfoot 366.975 -9.4359
ltoes -27.4279
119
root 7.50009 17.3145 -34.8539 -520.871 182.167 182.044
lowerback 6.51331 0.462469 -5.05503
upperback 3.72713 0.349649 2.07439
thorax 0.165711 0.079766 4.97255
lowerneck -8.5015 -4.76256 0.535829
upperneck 22.6061 -5.17063 -6.75713
head 8.18591 -3.03533 -2.82408
rclavicle 9.93923e-015 -7.95139e-015
rhumerus -31.8888 3.47823 -74.8213
rradius 42.3231
rwrist -13.2409
rhand -29.9023 31.5809
rfingers 7.12502
rthumb -3.22311 1.62552
lclavicle 9.93923e-015 -7.95139e-015
lhumerus -28.8311 -6.23533 70.047
lradius 35.1917
lwrist 28.6608
lhand -15.2134 39.5534
lfingers 7.12502
lthumb 10.9589 -650.753
rfemur -15.068 4.7949 17.7704
rtibia 32.2335
rfoot -173.321 175.275
rtoes -19.0592
lfemur -18.2735 4.21792 -24.6697
ltibia 38.7392
lfoot 367.613 -9.66627
ltoes -27.2485
120
root 7.44753 17.2513 -35.0329 -520.131 182.423 181.691
lowerback 3.65122 0.301763 -4.96115
upperback 2.76981 0.263087 2.0647
thorax 0.778895 0.0430897 4.91569
lowerneck -10.6974 -4.38985 -1.00136
upperneck 24.4177 -4.97254 -3.83009
head 9.36736 -2.80237 -1.69592
rclavicle 5.96354e-016 -4.37326e-015
rhumerus -32.5922 2.93675 -73.1515
rradius 40.7973
rwrist -12.2062
rhand -29.9708 31.7899
rfingers 7.12502
rthumb -3.28931 1.83557
lclavicle 5.96354e-016 -4.37326e-015
lhumerus -30.2405 -4.25033 67.9394
lradius 33.1762
lwrist 27.2807
lhand -8.73364 33.536
lfingers 7.12502
lthumb 17.2028 -657.206
rfemur -12.4575 5.82226 18.2808
rtibia 28.2725
rfoot -172.132 172.57
rtoes -13.6847
lfemur -16.1452 3.5457 -24.9522
ltibia 33.9096
lfoot 368.82 -9.22864
ltoes -26.7319
